<svg width="32" height="32" viewBox="0 0 32 32" fill="none" xmlns="http://www.w3.org/2000/svg">
  <!-- Dark gray circle background -->
  <circle cx="16" cy="16" r="16" fill="#1a1e21"/>
  
  <!-- Letter C -->
  <path 
    d="M20.5 12.3C19.4 11.1 17.9 10.5 16 10.5C14.1 10.5 12.6 11.1 11.5 12.3C10.4 13.5 9.8 15.1 9.8 17V17.5C9.8 19.4 10.4 21 11.5 22.2C12.6 23.4 14.1 24 16 24C17.9 24 19.4 23.4 20.5 22.2C21.1 21.6 21.5 20.9 21.8 20.1C22 19.5 21.7 19 21.2 18.8C20.7 18.6 20.1 18.8 19.9 19.3C19.7 19.8 19.4 20.3 19 20.7C18.3 21.5 17.3 21.9 16 21.9C14.7 21.9 13.7 21.5 13 20.7C12.3 19.9 11.9 18.8 11.9 17.5V17C11.9 15.7 12.3 14.6 13 13.8C13.7 13 14.7 12.6 16 12.6C17.3 12.6 18.3 13 19 13.8C19.4 14.2 19.7 14.7 19.9 15.2C20.1 15.7 20.7 15.9 21.2 15.7C21.7 15.5 22 15 21.8 14.4C21.5 13.6 21.1 12.9 20.5 12.3Z"
    fill="white"
  />
</svg>
